<mxfile host="app.diagrams.net" modified="2023-06-17T23:05:14.315Z" agent="Mozilla/5.0 (Macintosh; Intel Mac OS X 10_15_7) AppleWebKit/537.36 (KHTML, like Gecko) Chrome/114.0.0.0 Safari/537.36" etag="GLfGJVOwQWDHfZ-WD6j-" version="21.4.0" type="device">
  <diagram name="Page-1" id="tDmu0Z0gBo1njNn-WTa-">
    <mxGraphModel dx="1434" dy="796" grid="1" gridSize="10" guides="1" tooltips="1" connect="1" arrows="1" fold="1" page="1" pageScale="1" pageWidth="850" pageHeight="1100" math="0" shadow="0">
      <root>
        <mxCell id="0" />
        <mxCell id="1" parent="0" />
        <mxCell id="U0tlHdCXnId1E5SqcMwu-18" value="" style="verticalLabelPosition=bottom;html=1;verticalAlign=top;align=center;strokeColor=none;fillColor=#FF9999;shape=mxgraph.azure.database;" parent="1" vertex="1">
          <mxGeometry x="360" y="330" width="37.5" height="50" as="geometry" />
        </mxCell>
        <mxCell id="Qzg_5kur9ORvRKsmjB6t-7" value="" style="verticalLabelPosition=bottom;html=1;verticalAlign=top;align=center;strokeColor=none;fillColor=#FF9999;shape=mxgraph.azure.database;" vertex="1" parent="1">
          <mxGeometry x="480" y="400" width="37.5" height="50" as="geometry" />
        </mxCell>
        <mxCell id="Qzg_5kur9ORvRKsmjB6t-8" value="" style="verticalLabelPosition=bottom;html=1;verticalAlign=top;align=center;strokeColor=none;fillColor=#FF9999;shape=mxgraph.azure.database;" vertex="1" parent="1">
          <mxGeometry x="480" y="260" width="37.5" height="50" as="geometry" />
        </mxCell>
        <mxCell id="Qzg_5kur9ORvRKsmjB6t-9" value="" style="endArrow=classic;html=1;rounded=0;entryX=0;entryY=0.5;entryDx=0;entryDy=0;entryPerimeter=0;exitX=1;exitY=0.5;exitDx=0;exitDy=0;exitPerimeter=0;startArrow=classic;startFill=1;" edge="1" parent="1" source="U0tlHdCXnId1E5SqcMwu-18" target="Qzg_5kur9ORvRKsmjB6t-8">
          <mxGeometry width="50" height="50" relative="1" as="geometry">
            <mxPoint x="360" y="430" as="sourcePoint" />
            <mxPoint x="410" y="380" as="targetPoint" />
          </mxGeometry>
        </mxCell>
        <mxCell id="Qzg_5kur9ORvRKsmjB6t-14" value="Replicação" style="edgeLabel;html=1;align=center;verticalAlign=middle;resizable=0;points=[];" vertex="1" connectable="0" parent="Qzg_5kur9ORvRKsmjB6t-9">
          <mxGeometry x="-0.0529" y="2" relative="1" as="geometry">
            <mxPoint as="offset" />
          </mxGeometry>
        </mxCell>
        <mxCell id="Qzg_5kur9ORvRKsmjB6t-10" value="Replicação" style="endArrow=classic;html=1;rounded=0;entryX=0;entryY=0.5;entryDx=0;entryDy=0;entryPerimeter=0;exitX=1;exitY=0.5;exitDx=0;exitDy=0;exitPerimeter=0;startArrow=classic;startFill=1;" edge="1" parent="1" source="U0tlHdCXnId1E5SqcMwu-18" target="Qzg_5kur9ORvRKsmjB6t-7">
          <mxGeometry width="50" height="50" relative="1" as="geometry">
            <mxPoint x="350" y="450" as="sourcePoint" />
            <mxPoint x="400" y="400" as="targetPoint" />
          </mxGeometry>
        </mxCell>
        <mxCell id="Qzg_5kur9ORvRKsmjB6t-11" value="" style="shape=image;html=1;verticalAlign=top;verticalLabelPosition=bottom;labelBackgroundColor=#ffffff;imageAspect=0;aspect=fixed;image=https://cdn0.iconfinder.com/data/icons/basic-e-commerce-line-color/48/Receipt_update-128.png" vertex="1" parent="1">
          <mxGeometry x="220" y="331" width="48" height="48" as="geometry" />
        </mxCell>
        <mxCell id="Qzg_5kur9ORvRKsmjB6t-12" value="" style="endArrow=classic;html=1;rounded=0;exitX=1;exitY=0.5;exitDx=0;exitDy=0;entryX=0;entryY=0.5;entryDx=0;entryDy=0;entryPerimeter=0;" edge="1" parent="1" source="Qzg_5kur9ORvRKsmjB6t-11" target="U0tlHdCXnId1E5SqcMwu-18">
          <mxGeometry width="50" height="50" relative="1" as="geometry">
            <mxPoint x="350" y="450" as="sourcePoint" />
            <mxPoint x="400" y="400" as="targetPoint" />
          </mxGeometry>
        </mxCell>
        <mxCell id="Qzg_5kur9ORvRKsmjB6t-13" value="Transação" style="edgeLabel;html=1;align=center;verticalAlign=middle;resizable=0;points=[];" vertex="1" connectable="0" parent="Qzg_5kur9ORvRKsmjB6t-12">
          <mxGeometry x="-0.1522" relative="1" as="geometry">
            <mxPoint as="offset" />
          </mxGeometry>
        </mxCell>
        <mxCell id="Qzg_5kur9ORvRKsmjB6t-15" value="Replicação" style="endArrow=classic;html=1;rounded=0;entryX=0.5;entryY=0;entryDx=0;entryDy=0;entryPerimeter=0;exitX=0.5;exitY=1;exitDx=0;exitDy=0;exitPerimeter=0;startArrow=classic;startFill=1;" edge="1" parent="1" source="Qzg_5kur9ORvRKsmjB6t-8" target="Qzg_5kur9ORvRKsmjB6t-7">
          <mxGeometry width="50" height="50" relative="1" as="geometry">
            <mxPoint x="350" y="450" as="sourcePoint" />
            <mxPoint x="400" y="400" as="targetPoint" />
          </mxGeometry>
        </mxCell>
        <mxCell id="Qzg_5kur9ORvRKsmjB6t-16" value="" style="endArrow=classic;html=1;rounded=0;exitX=1;exitY=0.5;exitDx=0;exitDy=0;entryX=-0.08;entryY=0.34;entryDx=0;entryDy=0;entryPerimeter=0;" edge="1" parent="1" source="Qzg_5kur9ORvRKsmjB6t-11" target="Qzg_5kur9ORvRKsmjB6t-8">
          <mxGeometry width="50" height="50" relative="1" as="geometry">
            <mxPoint x="350" y="450" as="sourcePoint" />
            <mxPoint x="400" y="400" as="targetPoint" />
            <Array as="points">
              <mxPoint x="320" y="277" />
            </Array>
          </mxGeometry>
        </mxCell>
        <mxCell id="Qzg_5kur9ORvRKsmjB6t-17" value="Transação" style="edgeLabel;html=1;align=center;verticalAlign=middle;resizable=0;points=[];" vertex="1" connectable="0" parent="Qzg_5kur9ORvRKsmjB6t-16">
          <mxGeometry x="0.1146" y="-1" relative="1" as="geometry">
            <mxPoint as="offset" />
          </mxGeometry>
        </mxCell>
        <mxCell id="Qzg_5kur9ORvRKsmjB6t-18" value="" style="endArrow=classic;html=1;rounded=0;exitX=1;exitY=0.5;exitDx=0;exitDy=0;entryX=-0.107;entryY=0.78;entryDx=0;entryDy=0;entryPerimeter=0;" edge="1" parent="1" source="Qzg_5kur9ORvRKsmjB6t-11" target="Qzg_5kur9ORvRKsmjB6t-7">
          <mxGeometry width="50" height="50" relative="1" as="geometry">
            <mxPoint x="350" y="450" as="sourcePoint" />
            <mxPoint x="400" y="400" as="targetPoint" />
            <Array as="points">
              <mxPoint x="320" y="439" />
            </Array>
          </mxGeometry>
        </mxCell>
        <mxCell id="Qzg_5kur9ORvRKsmjB6t-19" value="Transação" style="edgeLabel;html=1;align=center;verticalAlign=middle;resizable=0;points=[];" vertex="1" connectable="0" parent="Qzg_5kur9ORvRKsmjB6t-18">
          <mxGeometry x="0.0267" relative="1" as="geometry">
            <mxPoint x="14" as="offset" />
          </mxGeometry>
        </mxCell>
      </root>
    </mxGraphModel>
  </diagram>
</mxfile>
